<?xml version="1.0" standalone="no"?>
<!DOCTYPE svg PUBLIC "-//W3C//DTD SVG 20010904//EN"
 "http://www.w3.org/TR/2001/REC-SVG-20010904/DTD/svg10.dtd">
<svg version="1.0" xmlns="http://www.w3.org/2000/svg"
 width="256.000000pt" height="256.000000pt" viewBox="0 0 256.000000 256.000000"
 preserveAspectRatio="xMidYMid meet">
<metadata>
Created by potrace 1.14, written by Peter Selinger 2001-2017
</metadata>
<g transform="translate(0.000000,256.000000) scale(0.100000,-0.100000)"
fill="#000000" stroke="none">
<path d="M53 2440 c-17 -10 -37 -28 -42 -39 -8 -13 -11 -206 -11 -590 0 -519
2 -579 19 -668 102 -526 513 -930 1041 -1024 97 -17 343 -17 440 0 528 94 939
498 1041 1024 17 89 19 149 19 670 0 628 3 600 -60 632 -41 21 -455 21 -567 0
-247 -46 -461 -247 -523 -491 -17 -65 -20 -110 -20 -291 0 -229 -6 -265 -51
-297 -30 -21 -88 -21 -118 0 -45 32 -51 68 -51 297 0 181 -3 226 -20 291 -30
118 -82 208 -175 302 -66 66 -98 89 -175 128 -134 66 -200 76 -483 76 -212 0
-235 -2 -264 -20z m549 -131 c192 -40 358 -198 416 -394 10 -34 16 -128 21
-300 7 -271 9 -282 68 -336 52 -49 92 -64 173 -64 83 0 133 20 182 72 52 55
58 85 58 305 1 124 6 232 14 278 38 213 215 396 424 439 29 6 148 11 263 11
l210 0 -4 -542 c-4 -580 -4 -582 -58 -748 -115 -352 -414 -640 -771 -744 -586
-170 -1211 158 -1403 734 -58 174 -58 172 -62 758 l-4 542 210 0 c115 0 234
-5 263 -11z"/>
<path d="M418 2120 c-49 -38 -50 -52 -46 -442 4 -335 6 -369 26 -443 90 -329
339 -580 660 -667 103 -28 324 -30 426 -5 294 74 531 277 639 548 57 142 60
166 64 562 5 395 4 409 -45 447 -31 25 -118 27 -185 4 -63 -21 -130 -83 -164
-152 -28 -57 -28 -58 -34 -312 -5 -235 -7 -260 -28 -313 -32 -81 -106 -174
-179 -224 -231 -158 -542 -86 -685 157 -57 98 -60 117 -66 385 -6 248 -6 250
-34 307 -34 69 -101 131 -164 152 -67 23 -154 21 -185 -4z m189 -162 c48 -45
53 -72 53 -295 0 -176 3 -222 20 -287 58 -229 234 -405 460 -462 89 -23 251
-15 340 15 184 64 320 202 392 398 19 51 22 88 27 314 l6 256 29 37 c16 21 47
46 70 57 l41 18 3 -312 c2 -255 0 -327 -14 -392 -61 -309 -305 -552 -610 -611
-354 -67 -704 124 -850 466 -57 131 -64 193 -64 540 l0 310 37 -15 c21 -9 48
-25 60 -37z"/>
</g>
</svg>
